<svg id="atomicArch" width="100%" xmlns="http://www.w3.org/2000/svg" style="background:#ffffff;max-width: 836.296875px;" viewBox="-24.0 -24.0 868.296875 515.5" role="graphics-document document" aria-roledescription="flowchart-v2"><style>#atomicArch{font-family:Montserrat,Inter,ui-sans-serif,system-ui,sans-serif;font-size:15px;fill:#1a202c;}#atomicArch .error-icon{fill:#f7fafc;}#atomicArch .error-text{fill:#080503;stroke:#080503;}#atomicArch .edge-thickness-normal{stroke-width:2px;}#atomicArch .edge-thickness-thick{stroke-width:3.5px;}#atomicArch .edge-pattern-solid{stroke-dasharray:0;}#atomicArch .edge-pattern-dashed{stroke-dasharray:3;}#atomicArch .edge-pattern-dotted{stroke-dasharray:2;}#atomicArch .marker{fill:#175168;stroke:#175168;}#atomicArch .marker.cross{stroke:#175168;}#atomicArch svg{font-family:Montserrat,Inter,ui-sans-serif,system-ui,sans-serif;font-size:15px;}#atomicArch .label{font-family:Montserrat,Inter,ui-sans-serif,system-ui,sans-serif;color:#1a202c;}#atomicArch .cluster-label text{fill:#0d3b4d;}#atomicArch .cluster-label span,#atomicArch p{color:#0d3b4d;}#atomicArch .label text,#atomicArch span,#atomicArch p{fill:#1a202c;color:#1a202c;}#atomicArch .node rect,#atomicArch .node circle,#atomicArch .node ellipse,#atomicArch .node polygon,#atomicArch .node path{fill:#eef4f7;stroke:#175168;stroke-width:1px;}#atomicArch .flowchart-label text{text-anchor:middle;}#atomicArch .node .katex path{fill:#000;stroke:#000;stroke-width:1px;}#atomicArch .node .label{text-align:center;}#atomicArch .node.clickable{cursor:pointer;}#atomicArch .arrowheadPath{fill:#0b0b0b;}#atomicArch .edgePath .path{stroke:#175168;stroke-width:2.0px;}#atomicArch .flowchart-link{stroke:#175168;fill:none;}#atomicArch .edgeLabel{background-color:#ffffff;text-align:center;}#atomicArch .edgeLabel rect{opacity:0.5;background-color:#ffffff;fill:#ffffff;}#atomicArch .labelBkg{background-color:rgba(255, 255, 255, 0.5);}#atomicArch .cluster rect{fill:#f4f8fa;stroke:#9db9c5;stroke-width:1px;}#atomicArch .cluster text{fill:#0d3b4d;}#atomicArch .cluster span,#atomicArch p{color:#0d3b4d;}#atomicArch div.mermaidTooltip{position:absolute;text-align:center;max-width:200px;padding:2px;font-family:Montserrat,Inter,ui-sans-serif,system-ui,sans-serif;font-size:12px;background:#f7fafc;border:1px solid hsl(204, 5.4545454545%, 87.8431372549%);border-radius:2px;pointer-events:none;z-index:100;}#atomicArch .flowchartTitleText{text-anchor:middle;font-size:18px;fill:#1a202c;}#atomicArch :root{--mermaid-font-family:"trebuchet ms",verdana,arial,sans-serif;}#atomicArch .accent rect{fill:rgb(230, 244, 239)!important;stroke:rgb(5, 150, 105)!important;color:rgb(26, 32, 44)!important;}#atomicArch .accent polygon{fill:rgb(230, 244, 239)!important;stroke:rgb(5, 150, 105)!important;color:rgb(26, 32, 44)!important;}#atomicArch .accent ellipse{fill:rgb(230, 244, 239)!important;stroke:rgb(5, 150, 105)!important;color:rgb(26, 32, 44)!important;}#atomicArch .accent circle{fill:rgb(230, 244, 239)!important;stroke:rgb(5, 150, 105)!important;color:rgb(26, 32, 44)!important;}#atomicArch .accent path{fill:rgb(230, 244, 239)!important;stroke:rgb(5, 150, 105)!important;color:rgb(26, 32, 44)!important;}#atomicArch .accent tspan{fill:rgb(26, 32, 44)!important;}</style><g><marker id="atomicArch_flowchart-pointEnd" class="marker flowchart" viewBox="0 0 10 10" refX="6" refY="5" markerUnits="userSpaceOnUse" markerWidth="12" markerHeight="12" orient="auto"><path d="M 0 0 L 10 5 L 0 10 z" class="arrowMarkerPath" style="stroke-width: 1; stroke-dasharray: 1, 0;"></path></marker><marker id="atomicArch_flowchart-pointStart" class="marker flowchart" viewBox="0 0 10 10" refX="4.5" refY="5" markerUnits="userSpaceOnUse" markerWidth="12" markerHeight="12" orient="auto"><path d="M 0 5 L 10 10 L 10 0 z" class="arrowMarkerPath" style="stroke-width: 1; stroke-dasharray: 1, 0;"></path></marker><marker id="atomicArch_flowchart-circleEnd" class="marker flowchart" viewBox="0 0 10 10" refX="11" refY="5" markerUnits="userSpaceOnUse" markerWidth="11" markerHeight="11" orient="auto"><circle cx="5" cy="5" r="5" class="arrowMarkerPath" style="stroke-width: 1; stroke-dasharray: 1, 0;"></circle></marker><marker id="atomicArch_flowchart-circleStart" class="marker flowchart" viewBox="0 0 10 10" refX="-1" refY="5" markerUnits="userSpaceOnUse" markerWidth="11" markerHeight="11" orient="auto"><circle cx="5" cy="5" r="5" class="arrowMarkerPath" style="stroke-width: 1; stroke-dasharray: 1, 0;"></circle></marker><marker id="atomicArch_flowchart-crossEnd" class="marker cross flowchart" viewBox="0 0 11 11" refX="12" refY="5.2" markerUnits="userSpaceOnUse" markerWidth="11" markerHeight="11" orient="auto"><path d="M 1,1 l 9,9 M 10,1 l -9,9" class="arrowMarkerPath" style="stroke-width: 2; stroke-dasharray: 1, 0;"></path></marker><marker id="atomicArch_flowchart-crossStart" class="marker cross flowchart" viewBox="0 0 11 11" refX="-1" refY="5.2" markerUnits="userSpaceOnUse" markerWidth="11" markerHeight="11" orient="auto"><path d="M 1,1 l 9,9 M 10,1 l -9,9" class="arrowMarkerPath" style="stroke-width: 2; stroke-dasharray: 1, 0;"></path></marker><g class="root"><g class="clusters"><g class="cluster default flowchart-label" id="SM"><rect style="" rx="0" ry="0" x="0" y="176" width="449.71875" height="88"></rect><g class="cluster-label" transform="translate(224.859375, 176)"><text style=""><tspan xml:space="preserve" dy="1em" x="0" class="row">State management</tspan></text></g></g><g class="cluster default flowchart-label" id="AD"><rect style="" rx="0" ry="0" x="469.71875" y="176" width="350.578125" height="291.5"></rect><g class="cluster-label" transform="translate(645.0078125, 176)"><text style=""><tspan xml:space="preserve" dy="1em" x="0" class="row">Atomic design system</tspan></text></g></g></g><g class="edgePaths"><path d="M246.953,25.652L266.315,31.46C285.677,37.268,324.401,48.884,343.763,58.392C363.125,67.9,363.125,75.3,363.125,79L363.125,82.7" id="L-Layout-Pages-0" class="edge-thickness-normal edge-pattern-solid flowchart-link LS-Layout LE-Pages" style="fill:none;" marker-end="url(#atomicArch_flowchart-pointEnd)"></path><path d="M185.938,25.652L166.576,31.46C147.214,37.268,108.49,48.884,89.128,62.025C69.766,75.167,69.766,89.833,69.766,104.5C69.766,119.167,69.766,133.833,69.766,145.75C69.766,157.667,69.766,166.833,69.766,175.117C69.766,183.4,69.766,190.8,69.766,194.5L69.766,198.2" id="L-Layout-Providers-0" class="edge-thickness-normal edge-pattern-solid flowchart-link LS-Layout LE-Providers" style="fill:none;" marker-end="url(#atomicArch_flowchart-pointEnd)"></path><path d="M391.578,108.941L433.816,115.534C476.055,122.128,560.531,135.314,602.77,146.49C645.008,157.667,645.008,166.833,645.008,175.117C645.008,183.4,645.008,190.8,645.008,194.5L645.008,198.2" id="L-Pages-Organisms-0" class="edge-thickness-normal edge-pattern-solid flowchart-link LS-Pages LE-Organisms" style="fill:none;" marker-end="url(#atomicArch_flowchart-pointEnd)"></path><path d="M645.008,236.5L645.008,241.083C645.008,245.667,645.008,254.833,645.008,264C645.008,273.167,645.008,282.333,645.008,290.617C645.008,298.9,645.008,306.3,645.008,310L645.008,313.7" id="L-Organisms-Molecules-0" class="edge-thickness-normal edge-pattern-solid flowchart-link LS-Organisms LE-Molecules" style="fill:none;" marker-end="url(#atomicArch_flowchart-pointEnd)"></path><path d="M645.008,352L645.008,356.583C645.008,361.167,645.008,370.333,645.008,378.617C645.008,386.9,645.008,394.3,645.008,398L645.008,401.7" id="L-Molecules-Atoms-0" class="edge-thickness-normal edge-pattern-solid flowchart-link LS-Molecules LE-Atoms" style="fill:none;" marker-end="url(#atomicArch_flowchart-pointEnd)"></path><path d="M334.672,112.572L313.565,118.56C292.458,124.548,250.245,136.524,229.138,147.095C208.031,157.667,208.031,166.833,208.031,175.117C208.031,183.4,208.031,190.8,208.031,194.5L208.031,198.2" id="L-Pages-Contexts-0" class="edge-thickness-normal edge-pattern-solid flowchart-link LS-Pages LE-Contexts" style="fill:none;" marker-end="url(#atomicArch_flowchart-pointEnd)"></path><path d="M363.125,121L363.125,125.583C363.125,130.167,363.125,139.333,363.125,148.5C363.125,157.667,363.125,166.833,363.125,175.117C363.125,183.4,363.125,190.8,363.125,194.5L363.125,198.2" id="L-Pages-Hooks-0" class="edge-thickness-normal edge-pattern-solid flowchart-link LS-Pages LE-Hooks" style="fill:none;" marker-end="url(#atomicArch_flowchart-pointEnd)"></path></g><g class="edgeLabels"><g class="edgeLabel"><g class="label" transform="translate(0, 0)"><rect rx="0" ry="0" width="0" height="0"></rect><text style=""><tspan xml:space="preserve" dy="1em" x="0" class="row"></tspan></text></g></g><g class="edgeLabel"><g class="label" transform="translate(0, 0)"><rect rx="0" ry="0" width="0" height="0"></rect><text style=""><tspan xml:space="preserve" dy="1em" x="0" class="row"></tspan></text></g></g><g class="edgeLabel"><g class="label" transform="translate(0, 0)"><rect rx="0" ry="0" width="0" height="0"></rect><text style=""><tspan xml:space="preserve" dy="1em" x="0" class="row"></tspan></text></g></g><g class="edgeLabel"><g class="label" transform="translate(0, 0)"><rect rx="0" ry="0" width="0" height="0"></rect><text style=""><tspan xml:space="preserve" dy="1em" x="0" class="row"></tspan></text></g></g><g class="edgeLabel"><g class="label" transform="translate(0, 0)"><rect rx="0" ry="0" width="0" height="0"></rect><text style=""><tspan xml:space="preserve" dy="1em" x="0" class="row"></tspan></text></g></g><g class="edgeLabel"><g class="label" transform="translate(0, 0)"><rect rx="0" ry="0" width="0" height="0"></rect><text style=""><tspan xml:space="preserve" dy="1em" x="0" class="row"></tspan></text></g></g><g class="edgeLabel"><g class="label" transform="translate(0, 0)"><rect rx="0" ry="0" width="0" height="0"></rect><text style=""><tspan xml:space="preserve" dy="1em" x="0" class="row"></tspan></text></g></g></g><g class="nodes"><g class="node default default flowchart-label" id="flowchart-Providers-41" data-node="true" data-id="Providers" transform="translate(69.765625, 220)"><rect class="basic label-container" style="" rx="0" ry="0" x="-39.765625" y="-16.5" width="79.53125" height="33"></rect><g class="label" style="" transform="translate(0, -9)"><rect></rect><text style=""><tspan xml:space="preserve" dy="1em" x="0" class="row">Providers</tspan></text></g></g><g class="node default default flowchart-label" id="flowchart-Contexts-42" data-node="true" data-id="Contexts" transform="translate(208.03125, 220)"><rect class="basic label-container" style="" rx="0" ry="0" x="-58.5" y="-16.5" width="117" height="33"></rect><g class="label" style="" transform="translate(0, -9)"><rect></rect><text style=""><tspan xml:space="preserve" dy="1em" x="0" class="row">React contexts</tspan></text></g></g><g class="node default default flowchart-label" id="flowchart-Hooks-43" data-node="true" data-id="Hooks" transform="translate(363.125, 220)"><rect class="basic label-container" style="" rx="0" ry="0" x="-56.59375" y="-16.5" width="113.1875" height="33"></rect><g class="label" style="" transform="translate(0, -9)"><rect></rect><text style=""><tspan xml:space="preserve" dy="1em" x="0" class="row">Custom hooks</tspan></text></g></g><g class="node default accent flowchart-label" id="flowchart-Organisms-38" data-node="true" data-id="Organisms" transform="translate(645.0078125, 220)"><rect class="basic label-container" style="" rx="0" ry="0" x="-136.171875" y="-16.5" width="272.34375" height="33"></rect><g class="label" style="" transform="translate(0, -9)"><rect></rect><text style=""><tspan xml:space="preserve" dy="1em" x="0" class="row">02-Organisms — complex UI sections</tspan></text></g></g><g class="node default accent flowchart-label" id="flowchart-Molecules-39" data-node="true" data-id="Molecules" transform="translate(645.0078125, 335.5)"><rect class="basic label-container" style="" rx="0" ry="0" x="-145.2890625" y="-16.5" width="290.578125" height="33"></rect><g class="label" style="" transform="translate(0, -9)"><rect></rect><text style=""><tspan xml:space="preserve" dy="1em" x="0" class="row">01-Molecules — compound components</tspan></text></g></g><g class="node default accent flowchart-label" id="flowchart-Atoms-40" data-node="true" data-id="Atoms" transform="translate(645.0078125, 423.5)"><rect class="basic label-container" style="" rx="0" ry="0" x="-112.96875" y="-16.5" width="225.9375" height="33"></rect><g class="label" style="" transform="translate(0, -9)"><rect></rect><text style=""><tspan xml:space="preserve" dy="1em" x="0" class="row">00-Atoms — basic UI elements</tspan></text></g></g><g class="node default default flowchart-label" id="flowchart-Layout-36" data-node="true" data-id="Layout" transform="translate(216.4453125, 16.5)"><rect class="basic label-container" style="" rx="0" ry="0" x="-30.5078125" y="-16.5" width="61.015625" height="33"></rect><g class="label" style="" transform="translate(0, -9)"><rect></rect><text style=""><tspan xml:space="preserve" dy="1em" x="0" class="row">Layout</tspan></text></g></g><g class="node default default flowchart-label" id="flowchart-Pages-37" data-node="true" data-id="Pages" transform="translate(363.125, 104.5)"><rect class="basic label-container" style="" rx="0" ry="0" x="-28.453125" y="-16.5" width="56.90625" height="33"></rect><g class="label" style="" transform="translate(0, -9)"><rect></rect><text style=""><tspan xml:space="preserve" dy="1em" x="0" class="row">Pages</tspan></text></g></g></g></g></g></svg>